<?xml version="1.0" encoding="UTF-8" standalone="no"?>
<!-- Created with Inkscape (http://www.inkscape.org/) -->

<svg xmlns="http://www.w3.org/2000/svg" width="60" height="60" viewBox="0 0 60 60">
  <path style="fill:#00acc1;fill-rule:evenodd" d="m39,33c-1,1 1,16 0.0019,16.824567 -0.9981,0.824567 -4.98374,4.040591 -5.99282,3.108012C32,52 32,8 33.00438,7.0652505 34.00876,6.130501 49.826604,16.340788 50.78455,18c1.2,2.078461 -5.212188,4.972286 -6.062187,3.5C44.353408,20.860993 39.985151,16.567982 38.9981,17.471816 38.011049,18.37565 38,26 39,27c 1,1 6,0 6,0 2,0 2,6 0,6 0,0 -5,-1 -6,0zM27.003489,7.0615905C21.328094,9.677257 10.173783,16.340016 9.21539,18c-1.2,2.078461 -1.2,21.921539 0,24C10.173783,43.659985 21.328094,50.322742 27.003489,52.938404 28.625867,53.777565 29,47 27.0044,45.831027 22.813372,43.768069 15.910134,39.595638 15.277568,38.5c-0.85,-1.472243 -0.85,-15.527756 0,-17 0.632488,-1.095502 7.534105,-5.267042 11.725285,-7.330265C29,13 29,6 27.003489,7.0615905ZM30,60c-3,0 -24.4807626,-12.401923 -25.9807627,-15 -1.5,-2.598076 -1.5,-27.401924 0,-30C5.5192374,12.401924 27,0 30,0c3,0 24.480763,12.401923 25.980763,15 1.5,2.598076 1.5,27.401924 0,30C54.480763,47.598076 33,60 30,60Z"/>
</svg>
