<?xml version="1.0" standalone="no"?>
<!DOCTYPE svg PUBLIC "-//W3C//DTD SVG 20010904//EN"
 "http://www.w3.org/TR/2001/REC-SVG-20010904/DTD/svg10.dtd">
<svg version="1.0" xmlns="http://www.w3.org/2000/svg"
 width="700.000000pt" height="700.000000pt" viewBox="0 0 700.000000 700.000000"
 preserveAspectRatio="xMidYMid meet">
<metadata>
Created by potrace 1.14, written by Peter Selinger 2001-2017
</metadata>
<g transform="translate(0.000000,700.000000) scale(0.100000,-0.100000)"
fill="#000000" stroke="none">
<path d="M1335 6221 c-3 -2 -5 -151 -5 -331 0 -303 1 -326 18 -327 9 -1 85
-15 167 -31 83 -17 164 -33 180 -36 17 -2 72 -13 123 -22 l92 -17 0 -1957 0
-1957 -82 -17 c-46 -10 -90 -19 -98 -20 -8 -2 -35 -7 -60 -11 -25 -4 -52 -9
-60 -11 -8 -1 -75 -15 -147 -30 l-133 -27 0 -326 0 -327 1123 1 c617 1 1125 3
1129 4 10 1 9 651 0 651 -5 0 -50 9 -102 20 -89 18 -344 67 -400 76 -14 3 -36
7 -50 10 l-26 5 1 747 0 747 949 3 c522 1 952 5 955 7 3 3 5 192 5 420 1 408
1 415 -19 416 -11 0 -441 1 -955 2 l-935 2 0 747 c-1 665 1 747 15 750 12 3
1745 2 1760 -1 3 -1 6 -16 6 -33 1 -31 10 -157 18 -258 2 -25 7 -90 11 -145 4
-55 9 -109 10 -120 1 -11 3 -37 4 -58 l1 -38 420 2 420 1 0 747 0 747 -2165 0
c-1191 0 -2168 -2 -2170 -5z"/>
</g>
</svg>
