<svg version="1.1" xmlns="http://www.w3.org/2000/svg" width="100px" height="96.6px" viewBox="0 0 100 96.6">
<path fill="#334455" d="M80.1,31.3c-1.1-1.8-2.3-3.6-3.6-5.1l6.9-16.4L66.4,0L55.5,14.5c-3.6-0.6-7.4-0.5-11.1,0.1L33.6,0.5l-17,9.8
	l7,16.5c-2.5,3-4.4,6.4-5.7,10L0,39l0,19.6l18.2,2.2c0.6,1.7,1.4,3.4,2.4,5c0.9,1.6,2,3.2,3.2,4.6l-6.9,16.5l17,9.8l10.6-14.2
	c3.9,0.7,7.9,0.7,11.9,0L67,96.6l17-9.8l-7-16.5c2.5-3,4.4-6.4,5.7-10l17.4-2.2l0-19.6l-17.4-2.1C81.9,34.7,81.1,33,80.1,31.3z
	 M60.9,42.4c3.4,5.9,1.4,13.4-4.5,16.7s-13.4,1.4-16.7-4.5s-1.4-13.4,4.5-16.7S57.6,36.6,60.9,42.4z"/>
</svg>
