<svg xmlns="http://www.w3.org/2000/svg" viewBox="0 0 100 100"><defs><style>.a{fill:#647e8a;}.b{fill:#748e9a;}.c{fill:#bbb;}.d{fill:#849eaa;}.e{fill:#ddd;}.f{fill:#fff;}</style></defs><title>checkbox.dark.some</title><polygon class="a" points="76 7 18 7 4 21 4 79 18 93 76 93 90 79 90 21 76 7"/><polygon class="b" points="83 17 79 13 21 13 7 27 7 80 18.74 80 17 78.26 17 33.74 27.74 23 72.26 23 83 33.74 83 17"/><polygon class="c" points="83 78.26 81.26 80 83 80 83 78.26"/><path class="b" d="M78,11H20L6,25V83L20,97H78L92,83V25Zm4,65.26L71.26,87H26.74L16,76.26V31.74L26.74,21H71.26L82,31.74Z"/><path class="d" d="M76,7H18L4,21V79L18,93H76L90,79V21Zm4,65.26L69.26,83H24.74L14,72.26V27.74L24.74,17H69.26L80,27.74Z"/><polygon class="e" points="0 59 0 41 94 41 96 45 96 63 2 63 0 59"/><rect class="f" y="41" width="94" height="18"/></svg>