<svg xmlns="http://www.w3.org/2000/svg" viewBox="0 0 100 100"><defs><style>.a{fill:#ddd;}.b{fill:#bbb;}.c{fill:#ccc;}.d{fill:#1e88e5;}.e{fill:#0e78d5;}</style></defs><title>checkbox.all</title><polygon class="a" points="76 7 18 7 4 21 4 79 18 93 76 93 90 79 90 21 76 7"/><polygon class="b" points="83 17 79 13 21 13 7 27 7 80 18.74 80 17 78.26 17 33.74 27.74 23 72.26 23 83 33.74 83 17"/><polygon class="b" points="83 78.26 81.26 80 83 80 83 78.26"/><path class="b" d="M78,11H20L6,25V83L20,97H78L92,83V25Zm4,65.26L71.26,87H26.74L16,76.26V31.74L26.74,21H71.26L82,31.74Z"/><path class="c" d="M76,7H18L4,21V79L18,93H76L90,79V21Zm4,65.26L69.26,83H24.74L14,72.26V27.74L24.74,17H69.26L80,27.74Z"/><path class="d" d="M0,55.33,9.09,40A81.24,81.24,0,0,1,31.32,50a78.94,78.94,0,0,1,8.08,6,104.6,104.6,0,0,1,7.07-14A109.45,109.45,0,0,1,80.82,7L98,24A130.29,130.29,0,0,0,60.62,54a128.87,128.87,0,0,0-19.2,30A77.11,77.11,0,0,0,24.25,67,77.84,77.84,0,0,0,0,55.33Z"/><path class="e" d="M98,24A130.29,130.29,0,0,0,60.62,54a128.87,128.87,0,0,0-19.2,30A77.11,77.11,0,0,0,24.25,67,77.84,77.84,0,0,0,0,55.33l2,4A77.84,77.84,0,0,1,26.25,71,77.11,77.11,0,0,1,43.42,88a128.87,128.87,0,0,1,19.2-30A130.29,130.29,0,0,1,100,28"/></svg>