<?xml version="1.0" standalone="no"?>
<!DOCTYPE svg PUBLIC "-//W3C//DTD SVG 20010904//EN"
 "http://www.w3.org/TR/2001/REC-SVG-20010904/DTD/svg10.dtd">
<svg version="1.0" xmlns="http://www.w3.org/2000/svg"
 width="700.000000pt" height="700.000000pt" viewBox="0 0 700.000000 700.000000"
 preserveAspectRatio="xMidYMid meet">
<metadata>
Created by potrace 1.11, written by Peter Selinger 2001-2013
</metadata>
<g transform="translate(0.000000,700.000000) scale(0.100000,-0.100000)"
fill="#000000" stroke="none">
<path d="M3445 6993 c-72 -15 -153 -56 -429 -214 -171 -99 -318 -183 -326
-189 -20 -12 -114 -67 -168 -97 -23 -13 -93 -54 -155 -90 -62 -36 -132 -77
-157 -91 -25 -14 -114 -65 -198 -114 -84 -49 -174 -101 -199 -115 -26 -14 -70
-39 -97 -56 -28 -16 -64 -37 -81 -47 -58 -33 -210 -121 -225 -130 -8 -6 -67
-39 -130 -75 -63 -36 -122 -70 -130 -75 -8 -6 -22 -13 -30 -17 -8 -4 -31 -16
-50 -28 -19 -12 -55 -33 -80 -47 -186 -104 -334 -197 -370 -232 -55 -52 -102
-124 -137 -206 l-28 -65 -2 -1590 -2 -1590 23 -66 c31 -89 75 -165 128 -218
42 -43 120 -101 134 -101 4 0 15 -6 23 -14 9 -7 41 -27 71 -43 30 -17 71 -39
90 -50 40 -24 187 -110 210 -123 8 -5 51 -29 95 -55 44 -25 87 -50 95 -55 8
-6 22 -13 30 -17 8 -3 26 -14 40 -23 14 -10 50 -31 80 -48 30 -16 186 -106
347 -200 160 -93 297 -172 305 -176 7 -4 22 -12 33 -19 34 -21 344 -201 383
-223 20 -11 136 -78 257 -149 589 -343 580 -339 735 -339 151 0 180 9 359 112
75 44 152 89 171 99 33 19 332 193 470 273 36 21 94 55 130 75 36 21 205 119
375 218 171 99 326 188 345 199 19 11 89 52 155 90 215 125 297 173 470 273
357 206 425 249 469 295 84 89 148 211 162 310 4 25 7 731 7 1570 0 1619 1
1576 -47 1680 -62 134 -132 202 -320 310 -82 47 -170 97 -195 111 -25 15 -73
42 -106 61 -74 44 -246 143 -300 173 -22 13 -117 68 -211 122 -94 55 -177 103
-185 106 -8 4 -27 15 -44 26 -16 10 -100 58 -185 108 -85 49 -270 156 -410
237 -140 81 -262 151 -270 156 -8 5 -50 29 -93 54 -43 25 -80 46 -83 46 -2 0
-23 11 -45 26 -22 14 -57 34 -77 46 -20 11 -98 56 -173 99 -74 43 -157 86
-185 94 -46 15 -226 27 -269 18z m-1335 -1450 c25 -4 52 -8 61 -8 38 -4 158
-51 212 -83 182 -106 223 -262 103 -390 -71 -77 -196 -138 -341 -167 -65 -14
-272 -14 -345 -1 -310 55 -483 245 -389 425 87 167 411 271 699 224z m1609 -3
c156 -32 246 -74 326 -155 86 -85 106 -163 65 -253 -42 -94 -163 -176 -323
-223 -92 -27 -309 -34 -414 -14 -190 36 -324 115 -383 227 -100 187 111 388
445 426 89 10 211 6 284 -8z m1533 6 c68 -8 173 -39 232 -67 171 -83 242 -195
206 -326 -24 -86 -150 -187 -290 -233 -173 -56 -434 -48 -612 20 -237 89 -319
281 -186 435 73 85 248 159 406 172 37 3 68 7 70 8 4 3 121 -3 174 -9z m970
-1256 c92 -26 141 -107 141 -235 2 -235 -185 -530 -418 -660 -76 -42 -136 -59
-204 -56 -127 4 -192 85 -193 239 0 37 5 87 11 112 67 260 309 537 521 596 57
16 95 17 142 4z m-4426 -1278 c81 -28 161 -81 239 -157 273 -265 353 -653 155
-752 -115 -59 -284 -2 -439 147 -153 147 -251 333 -267 507 -19 208 120 321
312 255z m2861 -1295 c47 -18 82 -52 103 -102 122 -285 -239 -822 -567 -843
-152 -10 -227 71 -225 245 1 89 21 163 73 268 146 293 438 497 616 432z"/>
</g>
</svg>
