<?xml version="1.0" encoding="UTF-8" standalone="no"?>
<!-- Created with Inkscape (http://www.inkscape.org/) -->

<svg xmlns="http://www.w3.org/2000/svg" viewBox="0 0 897.96881 440.92725">
  <g transform="translate(52.000206,-532.06204)">
    <path style="fill:#dddddd;fill-rule:evenodd;stroke:#000000;stroke-width:0;stroke-linecap:butt;stroke-linejoin:miter;stroke-opacity:1" d="m -51.266466,549.12471 c -7.440636,20.44296 42.4123918,63.19273 117.557978,110.85187 95.827738,60.77626 232.786388,129.53614 344.512568,170.20115 l 132.8706,48.36094 72.55343,-199.33891 -132.8706,-48.36093 C 371.40905,590.09292 221.92346,554.67095 109.37152,539.68254 21.509986,527.98212 -43.844709,528.7336 -51.266466,549.12471 Z"/>
    <path style="fill:#00acc1;fill-rule:evenodd;stroke:#000000;stroke-width:0;stroke-linecap:butt;stroke-linejoin:miter;stroke-opacity:1" d="m 410.80408,830.17773 c -13.61902,89.10401 224.00325,156.21886 231.03536,140.52662 7.03198,-15.6924 -110.23497,-58.93452 -98.14275,-92.15766 z"/>
    <path d="m 483.16486,630.79914 c 46.8422,-77.01177 272.01202,24.3159 267.31204,40.85704 -4.69997,16.54109 -122.32717,-25.71126 -134.41942,7.5119 z" style="fill:#00acc1;fill-rule:evenodd;stroke:#000000;stroke-width:0;stroke-linecap:butt;stroke-linejoin:miter;stroke-opacity:1"/>
    <g transform="matrix(0.90630778,-0.42261826,0.42261826,0.90630778,-245.49653,250.90706)">
      <path d="m 475,877.36216 c 125,100 239.25321,160.00004 250,150.00004 10.74679,-10 -50,-125.00004 -150,-250.00004 z" style="fill:#ffff00;fill-rule:evenodd;stroke:#000000;stroke-width:0;stroke-linecap:butt;stroke-linejoin:miter;stroke-opacity:1"/>
      <path d="m 500,852.36216 c 50,50 165,135 175,125 10,-10 -75,-125 -125,-175 z" style="fill:#ff8800;fill-rule:evenodd;stroke:#000000;stroke-width:0;stroke-linecap:butt;stroke-linejoin:miter;stroke-opacity:1"/>
      <path d="m 515,837.36216 c 35,40 80,70 85,65 5,-5 -25,-50 -65,-85 z" style="fill:#ff0000;fill-rule:evenodd;stroke:#000000;stroke-width:0;stroke-linecap:butt;stroke-linejoin:miter;stroke-opacity:1"/>
    </g>
    <g transform="matrix(0.90630778,-0.42261826,0.42261826,0.90630778,-245.49653,250.90706)">
      <g transform="matrix(1.1562862,0.66758215,-0.66758215,1.1562862,396.42549,-388.73917)">
        <circle style="fill:#004b96" cx="400.5" cy="702.86218" r="57.5"/>
        <path style="fill:#ffffff;fill-rule:evenodd;stroke:#000000;stroke-width:0;stroke-linecap:butt;stroke-linejoin:miter;stroke-opacity:1" d="m 385.91051,669.14159 c -3.12293,2.6261 -7.29211,14.18915 -5.91051,23.94181 1.3816,9.75266 8.45591,22.79852 15,29.27876 6.54409,6.48024 20,10 20,10 l 0,-5 c 0,0 -11.30546,-4.24487 -16.96853,-10 -5.66307,-5.75513 -12.27164,-15.60487 -13.79363,-25 -1.03417,-6.38384 1.47192,-17.01902 3.53021,-19.07731 z"/>
        <path style="fill:#ff0044;fill-rule:evenodd;stroke:#000000;stroke-width:0;stroke-linecap:butt;stroke-linejoin:miter;stroke-opacity:1" d="m 339.80587,720.70069 c 0,0 28.74496,-18.47685 45.00664,-26.89581 6.07186,-3.14351 19.29383,-10.2442 31.34515,-17.19713 20.22457,-11.66843 41.66567,-23.38424 41.66567,-23.38424 0,0 -5.65111,8.31677 -11.02855,15.40223 -9.4168,12.40781 -22.14306,26.99525 -31.02926,34.63311 -8.8862,7.63786 -20.03551,14.66983 -28.51049,20.33198 -8.47498,5.66215 -35.34122,20.01865 -35.34122,20.01865 0,0 6.99594,-5.52121 15.32615,-11.03908 7.24751,-4.80069 15.55378,-9.40368 20.52437,-12.83436 10.68374,-7.37388 18.33925,-12.88 26.18106,-19.88994 7.84181,-7.00994 28.88385,-32.32067 28.88385,-32.32067 0,0 -11.52579,6.14051 -24.15243,13.55615 -11.00505,6.46326 -22.77812,12.96427 -29.36077,15.72172 -8.75964,3.66938 -26.51128,12.88422 -35.87031,17.54888 -9.35903,4.66465 -13.63986,6.34851 -13.63986,6.34851 z"/>
        <path style="fill:#ffffff;fill-rule:evenodd;stroke:#000000;stroke-width:0;stroke-linecap:butt;stroke-linejoin:miter;stroke-opacity:1" d="m 385.91051,669.14159 c 1.98732,-1.63244 10.17679,-5.95391 19.08949,-1.77943 8.9127,4.17448 19.87259,18.85536 21.59317,29.7161 1.72058,10.86074 -4.7889,24.68248 -4.7889,24.68248 0,0 4.60748,-14.43947 2.20429,-24.11468 -2.40319,-9.67521 -12.33461,-22.88075 -19.58928,-26.06463 -7.25467,-3.18388 -13.09584,-1.84536 -16.64462,1.70342 z"/>
        <circle style="fill:#dddddd" cx="412.44489" cy="729.06561" r="5"/>
        <circle style="fill:#f5f5f5" cx="382.90149" cy="744.86218" r="1.4962527"/>
        <circle style="fill:#f2f2f2" cx="361.59662" cy="688.9588" r="1.5966274"/>
        <circle style="fill:#f2f2f2" cx="438.00186" cy="703.35657" r="1.395878"/>
        <circle style="fill:#f2f2f2" cx="366.50635" cy="718.86853" r="1.5063409"/>
        <circle style="fill:#f2f2f2" cx="402.07416" cy="658.44263" r="1.2224382"/>
        <circle style="fill:#f2f2f2" cx="405.65463" cy="694.86218" r="1.3643895"/>
      </g>
      <path d="m 487.36797,799.93162 -49.65576,49.65577 15.06256,15.06256 112.96923,-112.96923 -15.06257,-15.06256 -48.27585,48.27585 -26.68997,-26.74662 58.46803,-38.02703 -15.06257,-15.06256 -76.93742,49.68276" style="fill:#667788;fill-rule:evenodd;stroke:#000000;stroke-width:0;stroke-linecap:butt;stroke-linejoin:miter;stroke-opacity:1"/>
      <path style="fill:#667788;fill-rule:evenodd;stroke:#000000;stroke-width:0;stroke-linecap:butt;stroke-linejoin:miter;stroke-opacity:1" d="m 310.36797,622.93162 -49.65576,49.65577 15.06256,15.06256 112.96923,-112.96923 -15.06257,-15.06256 -48.27585,48.27585 -26.68997,-26.74662 58.46803,-38.02703 -15.06257,-15.06256 -76.93742,49.68276"/>
    </g>
    <path d="m -51.266466,549.12471 c -7.440636,20.44296 42.4123918,63.19273 117.557978,110.85187 L 109.37152,539.68254 C 21.509986,527.98212 -43.844709,528.7336 -51.266466,549.12471 Z" style="fill:#00acc1;fill-rule:evenodd;stroke:#000000;stroke-width:0;stroke-linecap:butt;stroke-linejoin:miter;stroke-opacity:1"/>
  </g>
</svg>
