<?xml version="1.0" encoding="UTF-8" standalone="no"?>
<!-- Created with Inkscape (http://www.inkscape.org/) -->

<svg xmlns="http://www.w3.org/2000/svg" width="154.32587mm" height="154.32587mm" viewBox="0 0 546.82395 546.82394" style=''>
  <g transform="translate(-39.999999,-465.53825)">
    <path d="m 286.82394,765.53825 c 40.00001,40 80.00001,40 120.00001,0 l 120,-120 m 0,0 c 40,-40 40,-80 0,-120 -40,-40 -80,-40 -120,0 l -120.00001,120 c -40,40 -40,80 0,120" style="fill:none;fill-rule:evenodd;stroke:#000000;stroke-width:60px;stroke-linecap:butt;stroke-linejoin:miter;stroke-opacity:1"/>
    <path d="m 99.999999,952.3622 c 40.000001,40 80.000001,40 120.000001,0 40,-40 80,-80 120,-120 40,-40 40,-80 0,-120 -40,-40 -80,-40 -120,0 -40,40 -80,80 -120.000001,120 -40,40 -40,80 0,120 z" style="fill:none;fill-rule:evenodd;stroke:#ffffff;stroke-width:90px;stroke-linecap:butt;stroke-linejoin:miter;stroke-opacity:1"/>
    <path style="fill:none;fill-rule:evenodd;stroke:#000000;stroke-width:60px;stroke-linecap:butt;stroke-linejoin:miter;stroke-opacity:1" d="m 99.999999,952.3622 c 40.000001,40 80.000001,40 120.000001,0 40,-40 80,-80 120,-120 40,-40 40,-80 0,-120 -40,-40 -80,-40 -120,0 -40,40 -80,80 -120.000001,120 -40,40 -40,80 0,120 z"/>
    <path d="m 286.82394,765.53829 c 40.00001,40 80.00001,40 120.00001,0 l 120,-120.00004" style="fill:none;fill-rule:evenodd;stroke:#ffffff;stroke-width:90px;stroke-linecap:butt;stroke-linejoin:miter;stroke-opacity:1"/>
    <path style="fill:none;fill-rule:evenodd;stroke:#000000;stroke-width:60px;stroke-linecap:butt;stroke-linejoin:miter;stroke-opacity:1" d="m 286.82394,765.53829 c 40.00001,40 80.00001,40 120.00001,0 l 120,-120.00004"/>
  </g>
</svg>
