<?xml version="1.0" encoding="UTF-8" standalone="no"?>
<!-- Created with Inkscape (http://www.inkscape.org/) -->

<svg xmlns="http://www.w3.org/2000/svg" viewBox="0 0 60 60">
  <g transform="matrix(4.1204245,0,0,4.1204245,-93.609324,-81.150433)">
    <g>
      <path points="30,34 36,30.535898 36,26 30,29.464102" d="M30,29.464102 30,34 36,30.535898 36,26Z" style="fill:#345;stroke:none"/>
      <path points="30,29.464102 30,34 24,30.535898 24,26" d="M24,26 30,29.464102 30,34 24,30.535898Z" style="fill:#456;stroke:none"/>
    </g>
    <g>
      <path style="fill:#10bcd1;stroke:none" d="m27,21.6875 3,1.732051 3.007772,-1.736538 -3,-1.732051z" points="30,23.419551 33.007772,21.683013 30.007772,19.950962 27,21.6875"/>
      <path style="fill:#009cb1;stroke:none" d="M30,23.419551 30,29l3.007772,-1.736538 0,-5.580449z" points="30,29 33.007772,27.263462 33.007772,21.683013 30,23.419551"/>
      <path style="fill:#00acc1;stroke:none" d="M27,21.6875 30,23.419551 30,29 27,27.267949Z" points="30,23.419551 30,29 27,27.267949 27,21.6875"/>
    </g>
    <g>
      <path style="fill:#10bcd1;stroke:none" d="M30,24.267949 33,26 36.013082,24.260397 33.013081,22.528346Z" points="33,26 36.013082,24.260397 33.013081,22.528346 30,24.267949"/>
      <path style="fill:#009cb1;stroke:none" d="m33,26 0,1.75 3.013082,-1.739603 0,-1.75z" points="33,27.75 36.013082,26.010397 36.013082,24.260397 33,26"/>
      <path style="fill:#00acc1;stroke:none" d="M30,24.267949 33,26l0,1.75 -3,-1.732051z" points="33,26 33,27.75 30,26.017949 30,24.267949"/>
    </g>
    <g>
      <path points="27,26 30.013082,24.260397 27.013081,22.528346 24,24.267949" d="M24,24.267949 27,26 30.013082,24.260397 27.013081,22.528346Z" style="fill:#10bcd1;stroke:none"/>
      <path points="27,27.75 30.013082,26.010397 30.013082,24.260397 27,26 " d="m27,26 0,1.75 3.013082,-1.739603 0,-1.75z" style="fill:#009cb1;stroke:none"/>
      <path points="27,26 27,27.75 24,26.017949 24,24.267949" d="M24,24.267949 27,26l0,1.75 -3,-1.732051z" style="fill:#00acc1;stroke:none"/>
    </g>
    <g>
      <path points="30,28.482051 33,26.75 30,25.017949 27,26.75" d="M27,26.75 30,28.482051 33,26.75 30,25.017949Z" style="fill:#10bcd1"/>
      <path points="30,29.484375 33,27.752324 33,26.75 30,28.482051" d="m30,28.482051 0,1.002324 3,-1.732051L33,26.75Z" style="fill:#009cb1"/>
      <path points="30,28.482051 30,29.484375 27,27.752324 27,26.75" d="m27,26.75 3,1.732051 0,1.002324 -3,-1.732051z" style="fill:#00acc1"/>
    </g>
    <path d="m24,26 -1.281631,2.268583 6,3.576737 1.285537,-2.358831z" style="fill:#345"/>
    <path style="fill:#456" d="m36.003065,26 1.281631,2.268583 -6,3.576737 -1.285537,-2.358831z"/>
  </g>
</svg>
