<?xml version="1.0" encoding="UTF-8" standalone="no"?>
<!-- Created with Inkscape (http://www.inkscape.org/) -->

<svg xmlns="http://www.w3.org/2000/svg" viewBox="0 0 744.09449 744.09448"><g transform="translate(0,-308.26772)"><path style="stroke:#00acc1;stroke-width:30px;" d="m106.29921,343.7008 265.74804,0"/><path style="stroke:#00acc1;stroke-width:30px;" d="m159.44882,414.56694 212.59843,0"/><path style="stroke:#009cb1;stroke-width:30px;" d="m159.44882,609.44883 212.59843,0"/><path style="stroke:#009cb1;stroke-width:30px;" d="m106.29921,680.31497 265.74804,0"/><path style="stroke:#009cb1;stroke-width:30px;" d="m159.44882,751.18111 212.59843,0"/><path style="stroke:#00acc1;stroke-width:30px;" d="m159.44882,946.06299 212.59843,0"/><path style="stroke:#00acc1;stroke-width:30px;" d="m106.29921,1016.9291 265.74804,0"/><path style="stroke:#009cb1;stroke-width:30px;" d="m372.04725,343.7008 265.74804,0"/><path style="stroke:#009cb1;stroke-width:30px;" d="m372.04725,414.56694 212.59843,0"/><path style="stroke:#00acc1;stroke-width:30px;" d="m372.04725,609.44883 212.59843,0"/><path style="stroke:#00acc1;stroke-width:30px;" d="m372.04725,680.31497 265.74804,0"/><path style="stroke:#00acc1;stroke-width:30px;" d="m372.04725,751.18111 212.59843,0"/><path style="stroke:#009cb1;stroke-width:30px;" d="m584.64568,946.06299 -212.59843,0"/><path style="stroke:#009cb1;stroke-width:30px;" d="m637.79529,1016.9291 -265.74804,0"/><path style="fill:none;stroke:#345;stroke-width:60px;stroke-linecap:round;" d="m 637.79529,1016.9291 c 0,-159.44878 -531.49608,-177.16531 -531.49608,-336.61413"/><path style="fill:none;stroke:#567;stroke-width:60px;stroke-linecap:round;" d="m 106.29921,343.70079 c 0,159.44878 531.49608,177.16532 531.49608,336.61413"/><path style="fill:none;stroke:#567;stroke-width:60px;stroke-linecap:round;" d="m 106.29921,1016.9291 c 0,-177.16532 531.49608,-159.44878 531.49608,-336.61413"/><path style="fill:none;stroke:#345;stroke-width:60px;stroke-linecap:round;" d="m 637.79529,343.7008 c 0,177.16535 -531.49608,159.44882 -531.49608,336.61417"/></g></svg>
