<?xml version="1.0" encoding="UTF-8" standalone="no"?>
<!-- Created with Inkscape (http://www.inkscape.org/) -->

<svg xmlns="http://www.w3.org/2000/svg" viewBox="0 0 744.0945 744.09448"><g transform="translate(0,-308.26772)"><path d="m240.33631,609.33927c52.50962,0 52.50962,141.9514 0,141.9514 -52.50962,0 -52.50962,-141.9514 0,-141.9514z" style="fill:#00acc1"/><path d="m503.75818,609.33927c-52.50962,0 -52.50962,141.9514 0,141.9514 52.50962,0 52.50962,-141.9514 0,-141.9514z" style="fill:#00acc1"/><path d="m372.2139,924.80314c0,0 10.62992,3.54331 10.62992,14.17323l0,63.77953c0,14.1732 3.00655,13.1352 10.62993,17.7166 7.62338,4.5814 31.42666,11.0929 33.42986,5.5465 2.00321,-5.5465 -19.25664,-9.0899 -19.25664,-23.2631l0,-60.23622c0,-14.17323 -3.5433,-24.80315 -3.5433,-24.80315 0,0 14.17323,3.5433 14.17323,17.71653l0,46.063c0,17.7165 20.28832,22.33734 33.17565,25.34194 12.88734,3.0046 16.43064,-0.5388 9.34403,-7.62544 -7.08661,-7.0866 -17.71653,-10.6299 -17.71648,-16.94115 0.002,-25.53884 -0.0153,-46.4879 -5e-5,-71.6415 0,-17.71653 0,-17.71653 -17.71654,-35.43307l-106.46587,0c-17.71654,17.71654 -17.71654,17.71654 -17.71654,35.43307 0,14.17324 -17.40965,2.15933 -33.50797,-4.23529 -16.09832,-6.39462 -23.33784,-4.88988 -39.20627,-3.8706 -15.86843,1.01928 -21.73265,6.86207 0.68765,9.25564 22.4203,2.39357 23.44715,5.37666 38.8786,18.05834 15.43146,12.68168 33.13194,10.82928 33.13194,10.82928 0,0 0.0159,35.29287 0.016,41.60413 5e-5,6.31125 -10.62987,9.85455 -17.71648,16.94115 -7.08661,7.08664 -3.54331,10.63004 9.34403,7.62544 12.88733,-3.0046 33.17565,-7.62544 33.17565,-25.34194l0,-46.063c0,-14.17323 14.17323,-17.71653 14.17323,-17.71653 0,0 -3.5433,10.62992 -3.5433,24.80315l0,60.23622c0,14.1732 -21.25985,17.7166 -19.25664,23.2631 2.0032,5.5464 25.80648,-0.9651 33.42986,-5.5465 7.62338,-4.5814 10.62993,-3.5434 10.62993,-17.7166l0,-63.77953c0,-10.62992 10.79657,-14.17323 10.79657,-14.17323z" style="fill:#456"/><path d="m372.14028,872.94927c63.87256,0.0132 141.63925,-33.18549 177.17559,-65.82157 35.53634,-32.63608 53.259,-104.51587 53.15267,-151.09738 -0.10633,-46.58151 -20.69653,-80.47573 -54.69277,-90.10342 -33.99624,-9.62769 -145.95893,3.34144 -175.63549,3.34144 -29.67656,0 -141.82532,-12.96913 -175.72849,-3.34144 -33.90317,9.62769 -54.67951,43.52191 -54.69277,90.10342 -0.0133,46.58151 17.7094,118.4613 53.15267,151.09738 35.44327,32.63608 113.39603,65.80837 177.26859,65.82157 z M 187.24727,833.8194 C 141.73228,804.3307 71.184292,708.63451 70.897738,638.14106 70.673652,583.01496 80.106763,536.27784 112.85381,500.23283 88.582678,449.99998 81.657544,403.78618 96.923024,362.86394c55.600666,5.48917 126.466816,23.9811 168.239866,64.6863 19.0638,-2.14714 83.18398,-5.69932 106.77257,-5.7708 23.58859,-0.0715 107.08921,5.7708 107.08921,5.7708 41.77305,-40.7052 112.6392,-59.19713 168.23987,-64.6863 15.26548,40.92224 8.34034,87.13604 -15.93079,137.36889 32.74705,36.04501 42.18016,82.78213 41.95607,137.90823 -0.28655,70.49345 -70.92761,166.18964 -116.34953,195.67834 -45.42192,29.4887 -99.44938,61.99952 -184.86511,62.00452 -85.41573,0.005 -139.31292,-32.51582 -184.82791,-62.00452z" style="fill:#456"/></g></svg>
