<?xml version="1.0" encoding="UTF-8" standalone="no"?>
<!-- Created with Inkscape (http://www.inkscape.org/) -->

<svg xmlns='http://www.w3.org/2000/svg' viewBox="0 0 744.09449 744.09448"><g transform="translate(0,-308.26772)"><path d="m566.92913,574.01574 53.14961,141.73229c0,0 -31.53417,-29.98484 -51.57057,-31.04306 -16.16854,-0.85394 -34.33894,7.55138 -44.02247,20.52751 -12.83202,17.19517 -16.14025,43.27155 -9.47424,63.66515 15.47876,47.35484 51.91767,70.86615 105.06728,106.29922 0,53.1496 -17.71654,88.58267 -17.71654,88.58267 0,0 -107.26026,-44.98044 -159.44882,-50.33863 -52.18856,-5.35819 -146.8165,14.90556 -146.8165,14.90556L325.2138,573.13091Z" style="fill:#567"/><path d="M538.49187,450 480.60103,543.97385 332.03105,572.54979 296.7149,841.67125 139.73407,897.32487 194.88189,467.71653 538.49187,450Z" style="fill:#567"/><path d="M176.28052,930.46323 58.233827,993.43417C89.437047,935.61749 106.1078,870.02981 106.29921,804.3307 106.47517,743.93586 93.028067,684.36065 88.585628,624.12915c-2.221219,-30.11574 -2.172372,-60.55637 2.933628,-90.31911 5.106,-29.76274 15.413514,-58.90897 32.496494,-83.81005 19.80859,-28.87408 48.29216,-51.28207 79.94782,-66.2491 31.65566,-14.96703 66.41764,-22.71073 101.33115,-25.38276 69.82702,-5.34405 139.42139,9.16327 208.4848,20.76572 41.18533,6.91901 82.54051,12.8269 124.01575,17.71654l-53.1496,88.58267c-49.29472,-3.29896 -98.55764,-7.07324 -147.77958,-11.32213 -36.83686,-3.1798 -74.05958,-6.61681 -110.65093,-1.31223 -36.59135,5.30457 -73.09449,20.32082 -97.13214,48.41454 -14.88623,17.39811 -24.32188,39.03494 -29.20796,61.40502 -4.88609,22.37007 -5.38028,45.51178 -3.78787,68.35381 3.18482,45.68406 14.60591,90.65871 15.2793,136.4487 0.7298,49.62598 -11.47569,99.3867 -35.08597,143.04246z" style="fill:#00acc1"/><path d="m265.74803,556.29921c11.86715,-16.54387 28.96185,-28.87973 47.53102,-37.22926 18.56917,-8.34953 38.6326,-12.90594 58.76819,-15.92035 65.12925,-9.7502 132.57856,-3.61844 194.88189,17.71654l35.43307,88.58267c-55.5983,-23.12682 -118.08843,-29.37583 -177.16535,-17.71653 -13.21161,2.60742 -26.32124,6.11121 -38.563,11.72231 -12.24176,5.61109 -23.63099,13.40838 -32.30314,23.71076 -11.03984,13.11516 -17.25995,29.84166 -19.5172,46.8355 -2.25725,16.99383 -0.72966,34.30343 2.41507,51.15562 6.28947,33.70438 19.02125,66.29294 21.22329,100.50834 2.42828,37.73067 -8.58531,76.18942 -30.61773,106.91519l-104.72017,23.14785c40.52981,-43.18187 61.32937,-104.19831 55.61348,-163.14463 -3.92803,-40.50865 -19.54086,-78.88876 -27.99052,-118.7006 -4.22484,-19.90593 -6.65894,-40.35649 -4.85885,-60.62604 1.80009,-20.26955 8.00901,-40.42216 19.86995,-56.95737z" style="fill:#345"/></g></svg>
