<?xml version="1.0" encoding="UTF-8" standalone="no"?>
<!-- Created with Inkscape (http://www.inkscape.org/) -->

<svg xmlns="http://www.w3.org/2000/svg" viewBox="0 0 120 120">
  <path style="fill:#007AFF" d="M0,30C0,10 10,0 30,0l60,0c20,0 30,10 30,30l0,60C120,110 110,120 90,120l-60,0 C 10,120 0,110 0,90Z"/>
  <path style="fill:#FFF" d="m25,27c-4,0 -7,3 -7,7l0,42c0,4 3,7 7,7l70,0c4,0 7,-3 7,-7l0,-42c0,-4 -3,-7 -7,-7l-70,0zm2,7 66,0c0.98437,0 2,1 2,2l0,37c0,1 -1,2 -2,2l-66,0c-1,0 -2,-1 -2,-2l0,-37c0,-1 1,-2 2,-2z"/>
  <path style="fill:#FFF" d="m71,86c0,3 2,5 5,5l2,0 0,4 -36,0 0,-4 2,0c3,0 5,-2 5,-5l0,-1 22,0z"/>
</svg>
