<?xml version="1.0" encoding="UTF-8" standalone="no"?>
<!-- Created with Inkscape (http://www.inkscape.org/) -->

<svg xmlns="http://www.w3.org/2000/svg" viewBox="0 0 120 120">
  <path style="fill:#FC0" d="M0,30C0,10 10,0 30,0l60,0c20,0 30,10 30,30l0,60c0,20 -10,30 -30,30l-60,0C10,120 0,110 0,90Z"/>
  <path style="fill:#FFF" d="m82,46c2,-0.242187 3,-1 3,-3l0,-2 17,0c0.64453,0 1,-0.296832 1,-1l0,-1c0,-0.707074 -0.34356,-1 -1,-1 l -17,0 0,-2c-0.51132,-2.042562 -1,-2.757813 -3,-3l-10,-1 0,15z"/>
  <path style="fill:#FFF" d="m58,91c0,2 -1,3 -3,3l-28,0c-2,0 -3,-1 -3,-3l0,-8 34,0z"/>
  <path style="fill:#FFF" d="m58,81 -34,0 0,-4.817592C24,73.778707 29.604834,75.370996 30,73 31,67 30.65119,60.949291 31.996094,53 32.179318,51.917019 31.414214,50.996094 30,50.996094l-9,0c-1.414214,0 -3,-1.585786 -3,-3L18,31c0,-1.414214 1.585786,-3 3,-3l36,0c4.761173,0.295694 13,2.955442 13,4l0,15c0,1.127919 -10.193792,3.9952 -13,4l-6.273582,0.01073c-0.44322,0 -0.708093,0.107112 -0.773293,0.48146l-0.174096,0.99958c-0.06362,0.365269 0.221142,0.686152 0.735442,0.706973L51.7806,53.25c0.620712,0 0.828448,0.543565 0.770181,1.005944L51.579133,61.9665C51.541159,62.267842 51.384942,62.432463 51,62.453125l-2.544515,0.136576C48.218003,62.602448 48.029111,62.749916 48,63l-1.003906,8.624349C46.71956,74 52.436835,73.356392 55.734375,74.46875 57.796024,75.164205 58,78 58,78Z"/>
</svg>
