<?xml version="1.0" standalone="no"?>
<!DOCTYPE svg PUBLIC "-//W3C//DTD SVG 20010904//EN"
 "http://www.w3.org/TR/2001/REC-SVG-20010904/DTD/svg10.dtd">
<svg version="1.0" xmlns="http://www.w3.org/2000/svg"
 width="700.000000pt" height="700.000000pt" viewBox="0 0 700.000000 700.000000"
 preserveAspectRatio="xMidYMid meet">
<metadata>
Created by potrace 1.11, written by Peter Selinger 2001-2013
</metadata>
<g transform="translate(0.000000,700.000000) scale(0.100000,-0.100000)"
fill="#000000" stroke="none">
<path d="M3294 6858 c-115 -66 -225 -129 -244 -140 -19 -11 -75 -44 -125 -73
-49 -29 -110 -63 -135 -77 -25 -14 -99 -57 -165 -95 -234 -136 -413 -240 -615
-355 -19 -11 -64 -37 -100 -58 -36 -21 -81 -47 -100 -58 -19 -11 -73 -42 -120
-69 -47 -27 -105 -61 -130 -75 -49 -28 -735 -424 -790 -457 -90 -52 -187 -107
-202 -113 -10 -4 -18 -11 -18 -15 0 -4 123 -78 273 -164 149 -86 562 -324 917
-529 355 -205 665 -384 690 -398 25 -14 142 -81 260 -150 118 -69 235 -136
260 -150 25 -14 157 -90 293 -169 136 -78 253 -143 260 -143 7 0 118 61 246
135 129 74 235 135 237 135 1 0 31 17 65 38 35 22 84 50 109 64 25 14 90 52
145 83 55 32 138 80 185 107 47 27 92 53 100 58 13 8 525 303 623 359 17 10
83 48 146 85 62 36 115 66 116 66 1 0 44 25 94 55 51 30 94 55 97 55 3 0 30
16 60 35 30 19 56 35 59 35 2 0 28 14 57 31 61 36 356 207 408 236 183 103
209 121 197 131 -10 9 -159 96 -297 174 -19 11 -64 37 -100 58 -36 21 -81 47
-100 58 -19 11 -75 43 -125 72 -49 29 -110 64 -135 78 -25 14 -112 64 -195
112 -82 48 -224 130 -315 182 -91 52 -284 164 -430 248 -146 84 -278 161 -295
170 -16 9 -149 86 -294 170 -146 84 -279 160 -295 170 -17 10 -87 50 -156 90
-69 40 -143 83 -166 96 l-40 23 -210 -121z m-1164 -1397 c164 -36 244 -73 322
-151 82 -83 99 -161 53 -248 -30 -57 -48 -78 -100 -117 -105 -79 -247 -118
-430 -119 -186 -1 -266 14 -392 75 -165 80 -237 218 -176 338 73 148 304 242
578 235 55 -2 120 -7 145 -13z m1565 -4 c165 -35 304 -116 354 -206 50 -91 23
-202 -69 -283 -113 -100 -291 -150 -510 -143 -121 4 -142 7 -228 32 -183 52
-306 163 -316 284 -11 135 153 269 384 316 115 23 273 23 385 0z m1494 8 c191
-26 356 -119 406 -228 59 -126 -15 -259 -190 -342 -117 -55 -203 -70 -385 -69
-196 1 -348 49 -452 143 -114 102 -128 221 -38 324 124 140 389 210 659 172z"/>
<path d="M476 5142 c-2 -4 -3 -772 -2 -1707 l1 -1699 75 -44 c41 -25 91 -54
110 -65 19 -10 152 -87 295 -170 143 -82 280 -161 305 -175 25 -14 168 -97
318 -184 150 -87 274 -158 277 -158 3 0 28 -15 57 -33 29 -19 78 -47 108 -64
30 -17 80 -45 110 -63 30 -18 75 -44 100 -58 25 -14 176 -101 335 -193 331
-191 306 -176 507 -293 84 -49 178 -102 208 -119 30 -17 75 -43 100 -58 35
-22 46 -25 50 -14 3 8 5 772 4 1699 0 1728 0 1716 -35 1716 -7 0 -170 92 -229
130 -8 5 -42 24 -75 43 -33 19 -76 43 -95 54 -43 25 -274 160 -315 184 -16 10
-41 24 -55 32 -14 7 -180 103 -370 213 -190 111 -365 212 -390 226 -25 14 -83
48 -130 75 -156 91 -784 456 -825 479 -22 12 -129 74 -237 137 -109 64 -200
112 -202 109z m1299 -2147 c104 -29 224 -119 321 -240 142 -175 209 -393 166
-539 -19 -67 -38 -94 -83 -117 -218 -111 -603 194 -694 549 -33 132 -6 285 59
327 65 43 129 48 231 20z"/>
<path d="M6220 4964 c-280 -162 -513 -296 -920 -531 -85 -49 -245 -141 -355
-205 -235 -136 -231 -134 -461 -266 -99 -57 -186 -107 -194 -112 -19 -12 -132
-77 -181 -105 -20 -11 -149 -85 -286 -164 l-249 -143 0 -1704 c0 -937 3 -1704
8 -1704 4 0 106 57 226 126 119 70 237 138 262 152 25 14 117 67 205 118 286
165 1069 617 1115 643 97 55 266 153 280 161 68 41 153 90 155 90 3 0 194 110
225 130 8 5 58 33 110 63 52 30 111 63 130 74 19 11 58 34 85 51 28 17 74 43
103 58 28 15 53 30 53 33 4 20 3 3411 -1 3411 -3 0 -142 -79 -310 -176z m-78
-723 c35 -13 77 -57 96 -100 20 -47 24 -172 8 -241 -80 -334 -423 -637 -656
-578 -142 36 -179 235 -84 461 68 162 231 347 369 419 98 51 197 66 267 39z
m-1512 -2538 c60 -39 88 -107 88 -208 -1 -87 -20 -160 -70 -265 -135 -282
-402 -472 -598 -427 -14 3 -28 6 -31 6 -23 3 -75 68 -90 113 -68 200 84 530
329 710 134 99 285 128 372 71z"/>
</g>
</svg>
